<svg xmlns="http://www.w3.org/2000/svg" viewBox="0 0 128 128" role="img" aria-label="AI Ticket Agent minimal icon">
  <defs>
    <linearGradient id="bg" x1="8" y1="8" x2="120" y2="120" gradientUnits="userSpaceOnUse">
      <stop offset="0" stop-color="#0f172a" />
      <stop offset="1" stop-color="#1e293b" />
    </linearGradient>
  </defs>

  <rect x="8" y="8" width="112" height="112" rx="24" fill="url(#bg)" />
  <path d="M34 36h60a8 8 0 0 1 8 8v9a10 10 0 0 0 0 22v9a8 8 0 0 1-8 8H34a8 8 0 0 1-8-8v-9a10 10 0 0 0 0-22v-9a8 8 0 0 1 8-8Z" fill="#e2e8f0" />
  <rect x="46" y="48" width="36" height="4" rx="2" fill="#0f172a" />
  <rect x="46" y="58" width="9" height="9" rx="2" fill="#0f172a" />
  <rect x="59" y="58" width="9" height="9" rx="2" fill="#0f172a" />
  <rect x="72" y="58" width="9" height="9" rx="2" fill="#0f172a" />
  <rect x="61" y="71" width="6" height="6" rx="1.5" fill="#0f172a" />
  <path d="M18 56h8m0 16h-8m94-16h8m0 16h-8" stroke="#94a3b8" stroke-width="3" stroke-linecap="round" />
</svg>
